# xmcd
#
# Track frame offsets:
#	150
#	13475
#	25012
#	35762
#	50137
#	60575
#	74375
#	87237
#	97850
#	109112
#	120112
#	136037
#
# Disc length: 1979 seconds
# Revision: 3
# Processed by: cddbd v1.5.2PL0 Copyright (c) Steve Scherf et al.
# Submitted via: dBpowerAMP V12.0
#
DISCID=9907b90c
DTITLE=Medium Terzett - Von Den Blauen Bergen Kommen Wir
DYEAR=1974
DGENRE=Country
TTITLE0=Von Den Blauen Bergen Kommen Wir
TTITLE1=Tom Dooley
TTITLE2=San Antonio Rose
TTITLE3=Sag Warum Willst Von Mir Gehen (High Noon)
TTITLE4=Gelbe Rose (Yellow Rose Of Texas)
TTITLE5=Der Weg Zurück Nach Haus' (Green Green Grass Of Home)
TTITLE6=Komm Zurück in das Tal Meiner Träume (Red River Rock)
TTITLE7=Weit Ist Die Prärie (Home on The Range)
TTITLE8=Wenn Es Nacht Wird in Montana
TTITLE9=Der Schatz Im Silbersee
TTITLE10=Es Hängt Ein Pferdehalfter an Der Wand
TTITLE11=Geisterreiter (Ghostriders in the Sky)
EXTD=
EXTT0=
EXTT1=
EXTT2=
EXTT3=
EXTT4=
EXTT5=
EXTT6=
EXTT7=
EXTT8=
EXTT9=
EXTT10=
EXTT11=
PLAYORDER=
